<?xml version="1.0" encoding="UTF-8"?>
<svg width="32" height="32" viewBox="0 0 32 32" xmlns="http://www.w3.org/2000/svg">
  <defs>
    <linearGradient id="faviconGradient" x1="0%" y1="0%" x2="100%" y2="100%">
      <stop offset="0%" style="stop-color:#6366f1;stop-opacity:1" />
      <stop offset="50%" style="stop-color:#8b5cf6;stop-opacity:1" />
      <stop offset="100%" style="stop-color:#a855f7;stop-opacity:1" />
    </linearGradient>
  </defs>
  
  <!-- Background -->
  <rect x="0" y="0" width="32" height="32" rx="6" ry="6" fill="url(#faviconGradient)"/>
  
  <!-- Simplified W for favicon -->
  <g transform="translate(4, 6)">
    <path d="M 2 4 L 6 16 L 8 12 L 10 16 L 14 4" 
          stroke="#ffffff" 
          stroke-width="2" 
          fill="none" 
          stroke-linecap="round" 
          stroke-linejoin="round"/>
    
    <path d="M 16 4 L 20 16 L 22 12 L 24 16 L 28 4" 
          stroke="#ffffff" 
          stroke-width="2" 
          fill="none" 
          stroke-linecap="round" 
          stroke-linejoin="round"/>
  </g>
  
  <!-- Simple neural network dots -->
  <g opacity="0.6">
    <circle cx="8" cy="10" r="0.5" fill="#06b6d4"/>
    <circle cx="16" cy="8" r="0.5" fill="#06b6d4"/>
    <circle cx="24" cy="10" r="0.5" fill="#06b6d4"/>
    <circle cx="12" cy="16" r="0.5" fill="#06b6d4"/>
    <circle cx="20" cy="16" r="0.5" fill="#06b6d4"/>
    <circle cx="16" cy="24" r="0.5" fill="#06b6d4"/>
    
    <!-- Minimal connections -->
    <line x1="8" y1="10" x2="16" y2="8" stroke="#06b6d4" stroke-width="0.5" opacity="0.5"/>
    <line x1="16" y1="8" x2="24" y2="10" stroke="#06b6d4" stroke-width="0.5" opacity="0.5"/>
    <line x1="8" y1="10" x2="12" y2="16" stroke="#06b6d4" stroke-width="0.5" opacity="0.5"/>
    <line x1="24" y1="10" x2="20" y2="16" stroke="#06b6d4" stroke-width="0.5" opacity="0.5"/>
    <line x1="12" y1="16" x2="16" y2="24" stroke="#06b6d4" stroke-width="0.5" opacity="0.5"/>
    <line x1="20" y1="16" x2="16" y2="24" stroke="#06b6d4" stroke-width="0.5" opacity="0.5"/>
  </g>
</svg>