<?xml version="1.0" encoding="UTF-8"?>
<svg width="200" height="200" viewBox="0 0 200 200" xmlns="http://www.w3.org/2000/svg">
  <defs>
    <!-- Gradient definitions -->
    <linearGradient id="primaryGradient" x1="0%" y1="0%" x2="100%" y2="100%">
      <stop offset="0%" style="stop-color:#6366f1;stop-opacity:1" />
      <stop offset="50%" style="stop-color:#8b5cf6;stop-opacity:1" />
      <stop offset="100%" style="stop-color:#a855f7;stop-opacity:1" />
    </linearGradient>
    
    <linearGradient id="accentGradient" x1="0%" y1="0%" x2="100%" y2="100%">
      <stop offset="0%" style="stop-color:#06b6d4;stop-opacity:1" />
      <stop offset="100%" style="stop-color:#0891b2;stop-opacity:1" />
    </linearGradient>
    
    <!-- Glow effect -->
    <filter id="glow">
      <feGaussianBlur stdDeviation="3" result="coloredBlur"/>
      <feMerge> 
        <feMergeNode in="coloredBlur"/>
        <feMergeNode in="SourceGraphic"/>
      </feMerge>
    </filter>
  </defs>
  
  <!-- Background circle -->
  <circle cx="100" cy="100" r="90" fill="url(#primaryGradient)" opacity="0.1"/>
  
  <!-- Main W letter design -->
  <g transform="translate(40, 50)">
    <!-- Left stroke of W -->
    <path d="M 10 20 L 30 100 L 40 80 L 50 100 L 70 20" 
          stroke="url(#primaryGradient)" 
          stroke-width="8" 
          fill="none" 
          stroke-linecap="round" 
          stroke-linejoin="round"
          filter="url(#glow)"/>
    
    <!-- Right stroke of W -->
    <path d="M 80 20 L 100 100 L 110 80 L 120 100 L 140 20" 
          stroke="url(#primaryGradient)" 
          stroke-width="8" 
          fill="none" 
          stroke-linecap="round" 
          stroke-linejoin="round"
          filter="url(#glow)"/>
  </g>
  
  <!-- AI Brain/Circuit pattern overlay -->
  <g transform="translate(60, 60)" opacity="0.6">
    <!-- Neural network nodes -->
    <circle cx="20" cy="15" r="3" fill="url(#accentGradient)"/>
    <circle cx="40" cy="10" r="2" fill="url(#accentGradient)"/>
    <circle cx="60" cy="18" r="3" fill="url(#accentGradient)"/>
    <circle cx="80" cy="12" r="2" fill="url(#accentGradient)"/>
    
    <circle cx="15" cy="35" r="2" fill="url(#accentGradient)"/>
    <circle cx="45" cy="40" r="3" fill="url(#accentGradient)"/>
    <circle cx="75" cy="38" r="2" fill="url(#accentGradient)"/>
    
    <circle cx="25" cy="55" r="2" fill="url(#accentGradient)"/>
    <circle cx="55" cy="60" r="3" fill="url(#accentGradient)"/>
    <circle cx="85" cy="58" r="2" fill="url(#accentGradient)"/>
    
    <!-- Neural network connections -->
    <line x1="20" y1="15" x2="40" y2="10" stroke="url(#accentGradient)" stroke-width="1" opacity="0.5"/>
    <line x1="40" y1="10" x2="60" y2="18" stroke="url(#accentGradient)" stroke-width="1" opacity="0.5"/>
    <line x1="60" y1="18" x2="80" y2="12" stroke="url(#accentGradient)" stroke-width="1" opacity="0.5"/>
    
    <line x1="20" y1="15" x2="15" y2="35" stroke="url(#accentGradient)" stroke-width="1" opacity="0.5"/>
    <line x1="40" y1="10" x2="45" y2="40" stroke="url(#accentGradient)" stroke-width="1" opacity="0.5"/>
    <line x1="60" y1="18" x2="75" y2="38" stroke="url(#accentGradient)" stroke-width="1" opacity="0.5"/>
    
    <line x1="15" y1="35" x2="25" y2="55" stroke="url(#accentGradient)" stroke-width="1" opacity="0.5"/>
    <line x1="45" y1="40" x2="55" y2="60" stroke="url(#accentGradient)" stroke-width="1" opacity="0.5"/>
    <line x1="75" y1="38" x2="85" y2="58" stroke="url(#accentGradient)" stroke-width="1" opacity="0.5"/>
    
    <!-- Cross connections -->
    <line x1="20" y1="15" x2="45" y2="40" stroke="url(#accentGradient)" stroke-width="1" opacity="0.3"/>
    <line x1="40" y1="10" x2="75" y2="38" stroke="url(#accentGradient)" stroke-width="1" opacity="0.3"/>
    <line x1="60" y1="18" x2="25" y2="55" stroke="url(#accentGradient)" stroke-width="1" opacity="0.3"/>
  </g>
  
  <!-- Subtle code brackets -->
  <g transform="translate(20, 80)" opacity="0.3">
    <path d="M 5 10 L 0 15 L 5 20" stroke="url(#accentGradient)" stroke-width="2" fill="none"/>
  </g>
  <g transform="translate(175, 80)" opacity="0.3">
    <path d="M 0 10 L 5 15 L 0 20" stroke="url(#accentGradient)" stroke-width="2" fill="none"/>
  </g>
  
  <!-- Tagline text -->
  <text x="100" y="170" text-anchor="middle" font-family="Arial, sans-serif" font-size="12" font-weight="600" fill="url(#primaryGradient)">
    AI-POWERED DEVELOPMENT
  </text>
</svg>